<svg width="32" height="27" viewBox="0 0 32 27" fill="none" xmlns="http://www.w3.org/2000/svg">
<path d="M27.2261 4.36427L23.5197 6.25263L5.62197 15.3689C5.56145 14.9073 5.53099 14.4422 5.5308 13.9767C5.53325 12.1192 6.02093 10.2945 6.94554 8.68349C7.87015 7.07245 9.1996 5.73092 10.8022 4.79178C12.4048 3.85264 14.225 3.34847 16.0824 3.32922C17.9398 3.30997 19.77 3.77631 21.3917 4.68204L23.5132 3.60111L23.8297 3.43962C21.8863 2.02907 19.5907 1.18331 17.1967 0.995816C14.8027 0.808324 12.4034 1.2864 10.2641 2.37722C8.12479 3.46803 6.32874 5.12909 5.07444 7.17683C3.82013 9.22457 3.15643 11.5792 3.15668 13.9806C3.15668 14.3122 3.16927 14.6426 3.19444 14.9717C3.22971 15.4376 3.12636 15.9036 2.89741 16.311C2.66846 16.7184 2.32413 17.049 1.90775 17.2611L0.789062 17.8315V20.4922L4.08263 18.8135L5.14923 18.2691L6.2002 17.7339L25.0682 8.12016L27.1884 7.04053L31.5707 4.80706V2.14772L27.2261 4.36427Z" fill="black"/>
<path d="M31.5707 7.46875L7.272 19.8408L5.15183 20.923L0.789062 23.1461V25.8041L5.12188 23.5967L8.82827 21.7083L26.7443 12.579C26.8048 13.0437 26.8353 13.5118 26.8354 13.9803C26.8343 15.84 26.3468 17.667 25.4212 19.28C24.4957 20.893 23.1644 22.2359 21.5595 23.1753C19.9546 24.1148 18.1319 24.6181 16.2723 24.6354C14.4127 24.6526 12.5809 24.1832 10.9589 23.2737L10.8286 23.3427L8.52874 24.5148C10.4717 25.9254 12.7668 26.7714 15.1605 26.9593C17.5541 27.1473 19.9531 26.6699 22.0924 25.5798C24.2317 24.4897 26.0281 22.8294 27.2829 20.7824C28.5377 18.7354 29.2023 16.3814 29.203 13.9803C29.203 13.6456 29.19 13.311 29.1653 12.9802C29.1301 12.5143 29.2333 12.0485 29.462 11.6412C29.6907 11.2338 30.0346 10.9032 30.4507 10.6907L31.5707 10.1203V7.46875Z" fill="black"/>
</svg>
